<?xml version="1.0"?>
<svg xmlns="http://www.w3.org/2000/svg" id="Out_line" data-name="Out line" viewBox="0 0 512 512" width="512" height="512"><path d="M400.125,176H376v16h24.125a24.0275,24.0275,0,0,1,24,24V400h-8V216a16.01833,16.01833,0,0,0-16-16H392v16h8.125V400h-288V216H144V200H112.125a16.01833,16.01833,0,0,0-16,16V400h-8V216a24.0275,24.0275,0,0,1,24-24H208V176H112.125a40.04552,40.04552,0,0,0-40,40V408a40.04552,40.04552,0,0,0,40,40h112v8a24.0275,24.0275,0,0,1-24,24,8,8,0,0,0,0,16h112a8,8,0,0,0,0-16,24.0275,24.0275,0,0,1-24-24v-8h112a40.04552,40.04552,0,0,0,40-40V216A40.04552,40.04552,0,0,0,400.125,176ZM280.14355,480h-48.0371a39.79847,39.79847,0,0,0,8.01855-24v-8h32v8A39.79847,39.79847,0,0,0,280.14355,480ZM400.125,432h-288a24.03824,24.03824,0,0,1-22.62378-16H422.749A24.039,24.039,0,0,1,400.125,432Z"/><rect x="192" y="200" width="16" height="16"/><path d="M253.65723,82.34326a8.00122,8.00122,0,0,0-11.31446,0l-40,40A8.00038,8.00038,0,0,0,208,136h16v96h16V128a8.00008,8.00008,0,0,0-8-8h-4.68652L248,99.31348,268.68652,120H264a8.00008,8.00008,0,0,0-8,8V232h16V136h16a8.00038,8.00038,0,0,0,5.65723-13.65674Z"/><path d="M176,256v80h16V264h16a8.00038,8.00038,0,0,0,5.65723-13.65674l-40-40a8.00122,8.00122,0,0,0-11.31446,0l-40,40A8.00038,8.00038,0,0,0,128,264h16v72h16V256a8.00008,8.00008,0,0,0-8-8h-4.68652L168,227.31348,188.68652,248H184A8.00008,8.00008,0,0,0,176,256Z"/><path d="M336,208V320h16V216h16a8.00038,8.00038,0,0,0,5.65723-13.65674l-40-40a8.00122,8.00122,0,0,0-11.31446,0l-40,40A8.00038,8.00038,0,0,0,288,216h16V320h16V208a8.00008,8.00008,0,0,0-8-8h-4.68652L328,179.31348,348.68652,200H344A8.00008,8.00008,0,0,0,336,208Z"/><path d="M472.249,152.78857a95.97989,95.97989,0,0,0-53.35351-30.89795A144.03786,144.03786,0,0,0,158.91431,82.025a55.98593,55.98593,0,0,0-69.29322,40.61487A96.00607,96.00607,0,0,0,50.90625,290.05371l10.1875-12.33691A80.00226,80.00226,0,0,1,112,136a80.77345,80.77345,0,0,1,14.55469,1.31934l2.89062-15.73633A96.80768,96.80768,0,0,0,112,120q-2.369,0-4.71021.1167A39.97839,39.97839,0,0,1,150.707,96.56885c-2.01,4.10046-3.85351,8.29779-5.47949,12.60693l14.9707,5.64844a128.02642,128.02642,0,0,1,247.584,37.63916l15.97265-.92676c-.24121-4.15436-.668-8.2561-1.252-12.305a80.00045,80.00045,0,0,1,28.40234,138.48474l10.18946,12.33691A95.99987,95.99987,0,0,0,472.249,152.78857Z"/></svg>
